PathFileType	4	(X/Y/Z)	Beam_150-250.trc
DataRate	CameraRate	NumFrames	NumMarkers	Units	OrigDataRate	OrigDataStartFrame	OrigNumFrames
60	60	9	21	m	60	87	99
Frame#	Time	RHip			RKnee			RAnkle			RBigToe			RSmallToe			RHeel			LHip			LKnee			LAnkle			LBigToe			LSmallToe			LHeel			Neck			Head			Nose			RShoulder			RElbow			RWrist			LShoulder			LElbow			LWrist		
		X1	Y1	Z1	X2	Y2	Z2	X3	Y3	Z3	X4	Y4	Z4	X5	Y5	Z5	X6	Y6	Z6	X7	Y7	Z7	X8	Y8	Z8	X9	Y9	Z9	X10	Y10	Z10	X11	Y11	Z11	X12	Y12	Z12	X13	Y13	Z13	X14	Y14	Z14	X15	Y15	Z15	X16	Y16	Z16	X17	Y17	Z17	X18	Y18	Z18	X19	Y19	Z19	X20	Y20	Z20	X21	Y21	Z21	
87	3.966666666666667	-0.07591964366243718	0.907302683596033	-0.7154237763823988	-0.09018962981874262	0.5030677295015223	-0.6909072194631907	-0.05270427300575588	0.14182750436196148	-0.7457354354550818	-0.05515073102814346	0.0389450866801238	-0.6018955820946676	-0.09012777659979336	0.03512410468091954	-0.6416947684395444	-0.03439136532621359	0.10928527013960504	-0.7977719953611958	0.13196308200139453	0.8939907042719695	-0.7359837498958697	0.08264924273379261	0.5082780949852108	-0.686087747773283	0.036145598077097045	0.23423295872354055	-0.9462343208872284	0.041471968333841994	0.1084349686834456	-0.8418007598258523	0.07317433848961173	0.12617230559142031	-0.9069986135218339	0.03992621722352774	0.22396690827151952	-0.9907971586720017	-0.04159312632979328	1.4191543681740986	-0.6139886301311887	-0.06750536119214684	1.636034305609189	-0.40846984583023543	-0.044241855738518875	1.4872233459609694	-0.4299196999538983	-0.2052955420858025	1.3839225678814615	-0.6366963430014664	-0.4067988026336338	1.209722107007923	-0.6846612604247583	-0.5075693436809899	1.223951586277844	-0.4319884920515203	0.11654236005578147	1.4293479079589988	-0.7134727616893911	0.359785012573304	1.3957422217588267	-0.7145876906930954	0.6016282899292638	1.3484212022182696	-0.6897593967202996
88	3.983333333333333	-0.07165417854548957	0.9066583702266016	-0.7100678941375693	-0.09071256170931295	0.503235309105752	-0.6879999021170871	-0.05218282036340419	0.1441760595523611	-0.7399326032967867	-0.055156795737412695	0.04007844943260384	-0.6007595811162916	-0.0912851762698382	0.03595296428549457	-0.6441469440234826	-0.03355351268489284	0.11181678876698925	-0.7970172023346835	0.13295272034756975	0.8970367550254794	-0.7388691858669886	0.08723084518050805	0.512607212914	-0.6642941019897939	0.04086282114949272	0.22779686368763033	-0.9142288166498734	0.049639914637984096	0.11038630460019891	-0.8026097807285474	0.08435884934046858	0.12595504932684026	-0.86968527440646	0.047223062436488564	0.2166273506076881	-0.9529444534502056	-0.04966658861591002	1.4172864222511252	-0.6009219782373542	-0.08522387442260788	1.630760360614937	-0.39429127200270164	-0.05723637351090344	1.4821690614020187	-0.4159178269666213	-0.21021717907619228	1.3742817076021498	-0.6381910160688429	-0.4062712042023916	1.1951181676107865	-0.6776502966865685	-0.518110990162021	1.2021251786743847	-0.43186454500881	0.11672689750199716	1.4329241297444162	-0.6818333996369238	0.352177660696962	1.4147495236508545	-0.7004893864367028	0.5934944725893913	1.3912270490873095	-0.6643388721968725
89	4.0	-0.06856171033016797	0.9060046693731169	-0.7069287821217535	-0.09108279566454144	0.5037096248734908	-0.6831383309221105	-0.05129570306587754	0.14553864660608876	-0.7331527507579877	-0.055495406292467485	0.04164118980390333	-0.5997011290802056	-0.09245125773390445	0.03694639357911566	-0.6464737925581578	-0.032505245481569044	0.11229711816427668	-0.7956136924873766	0.1312652985447223	0.9013419432711145	-0.74641293434756	0.09071398904067543	0.5163842753512569	-0.6455316074891942	0.04638635027789273	0.22095756346332596	-0.8802187473927975	0.0567054796335244	0.11100537198960823	-0.76138879085066	0.09315134250832915	0.12461456249706489	-0.824567634442952	0.053523682928289934	0.20703828291424872	-0.9198930875160889	-0.05672321107307704	1.4145651888602564	-0.5895420196124445	-0.10107339847894022	1.6249529518026244	-0.3816757447864324	-0.06807867669075547	1.475553653793724	-0.4044879177938725	-0.21347092093183723	1.3657061177974137	-0.6385341901562849	-0.4043334865819569	1.1813925242682726	-0.6698484626497982	-0.5250467423051333	1.1804061207599987	-0.43431809246712594	0.11756223582559126	1.435096057349283	-0.6516555964769933	0.3451422625599995	1.4307610426363588	-0.6938962024646185	0.5807144080194998	1.4299314833724017	-0.639573461557254
90	4.016666666666667	-0.06620004665336736	0.9055590744484191	-0.7051769155443166	-0.09124617970048263	0.5040247645479985	-0.6768392123863709	-0.05008038233906715	0.14604442145620108	-0.7266632831510131	-0.056390702380197506	0.043301071678890406	-0.5993848385834053	-0.09410875704989027	0.03842882130755304	-0.6487461690258799	-0.03124430658752278	0.11111042889807113	-0.7943234916207114	0.12861119575160612	0.906040080447058	-0.7542647047266654	0.09317277470488636	0.519710872652338	-0.6286566205072238	0.053204329813462584	0.21510962256197774	-0.8438208285170974	0.06227848686118149	0.11100013465519531	-0.7181918147502627	0.09947289336219489	0.12328033644593439	-0.7736246730138481	0.05938082131247824	0.19676366089163824	-0.8897252912283561	-0.06302368270290577	1.4112758619751893	-0.579247580931965	-0.11452707780586555	1.619130837091088	-0.37052016522103215	-0.07681940124170222	1.468127877417853	-0.3952780663624194	-0.21568955248565327	1.3586499024502308	-0.6373296236810658	-0.4013424612290252	1.1689755133420168	-0.6625990212430185	-0.5285305706071266	1.1590248411358854	-0.437212055331206	0.11686758078472453	1.435891443222979	-0.628469142432351	0.34089421958773725	1.4438819171855843	-0.6893183848807178	0.5659515455825763	1.4632000693285487	-0.6141526415702867
91	4.033333333333333	-0.06442149087602486	0.9054401130926852	-0.7037631391527626	-0.09119964092203535	0.5042468746915971	-0.6696062286981267	-0.04866498857669182	0.14594008010953094	-0.7217068966119956	-0.05793909180366965	0.04471476046329654	-0.600348192185691	-0.09628014804375341	0.040376966999061605	-0.6508148719815048	-0.02975406540059837	0.10893922091935934	-0.7934747776291152	0.1267813629390546	0.9100094934016909	-0.7574907151349771	0.0944595548025572	0.5228495190367592	-0.613291410534206	0.0606797898132068	0.21018469167849385	-0.8052872618478815	0.06613223339079158	0.11099587041409062	-0.6732125707242491	0.1034344930256296	0.12285094656929788	-0.7190098073749029	0.06508832653933458	0.18655210463614225	-0.8584140295634515	-0.06864812952015986	1.4078682222516603	-0.5695682391543653	-0.12522066802038026	1.6138445610447774	-0.3605827185566426	-0.0839610552671666	1.4609734086443693	-0.38718908964406934	-0.21741222294775167	1.353171341293085	-0.634934991576286	-0.39779245158391985	1.1581731889242335	-0.6570274301236083	-0.5292018859355924	1.1385816194631544	-0.4390345535632678	0.11346509807045801	1.4356546424829901	-0.6145859544653084	0.3407603343921853	1.454474963517484	-0.6820646584471604	0.5520326570420669	1.490172543387664	-0.5864703244968539
92	4.05	-0.06333750758516138	0.9054799481818044	-0.7019548587700567	-0.09094165124424201	0.5047718901904796	-0.6617968172647054	-0.047362960495018036	0.1454323666055229	-0.7190599468271295	-0.060180464668104804	0.04562984072977471	-0.6025234766332731	-0.0984171171202777	0.042219130892197046	-0.6524877877128811	-0.028128093074389314	0.10641638634978554	-0.7928217436520376	0.12632880129942306	0.9128271432362868	-0.7544681223526183	0.0943773131263321	0.5260315279101996	-0.599331733373901	0.0676353764415048	0.20500550631555983	-0.7652801903447711	0.06821991102463379	0.11145805398411471	-0.627116872361807	0.10533995287600935	0.12365210023035683	-0.6630187623434888	0.07043385433374506	0.176439585344419	-0.8228846280183093	-0.07357171840433589	1.4049100361628082	-0.5603880174759903	-0.1331831134014914	1.6096226451563997	-0.3516589978465024	-0.09019512773030473	1.4551245830976571	-0.37929078629585306	-0.21887710101087285	1.3491823512194603	-0.631801876605418	-0.39422696377435856	1.149225417402747	-0.6536694823759742	-0.5278301845258596	1.1198823458360663	-0.43962621951367725	0.10787435829106554	1.4350671903880843	-0.6075357248851557	0.34410209946017173	1.4630119921603744	-0.6710048245386657	0.5397385486651819	1.5110164016999426	-0.5569754128262021
93	4.066666666666666	-0.06302098691644062	0.9053137453406902	-0.6995403906033923	-0.09023661455220525	0.506094534099232	-0.6533123518909659	-0.04652756635426736	0.14467120133591638	-0.718815729657647	-0.06299855210540582	0.046038552698563495	-0.6052787441838718	-0.09993480861349775	0.04345142392895417	-0.6537091885011247	-0.02662395300738384	0.10402029550082324	-0.7919891161815645	0.1263131445745284	0.9150093228326867	-0.7479157778602432	0.09295780544056194	0.5293073408748283	-0.5862684325352981	0.07318516147238706	0.19842036185015097	-0.7248660887147627	0.06865097186327934	0.11265451653756806	-0.5809220320562338	0.10578010297272292	0.12527496396410023	-0.6084540594328102	0.07507029571387236	0.16613813983761427	-0.782996719442806	-0.07775775720355053	1.4029421680408682	-0.5518408949432283	-0.13890450133186782	1.6068360856633919	-0.3435920281856171	-0.09607946277158015	1.4512811795416778	-0.37106951126589954	-0.2200709762840396	1.3466721416029706	-0.6280654040358976	-0.39100199485961257	1.1422622483674925	-0.6523724261195442	-0.5251334746702023	1.1036869758010737	-0.43978405120146546	0.10162339227659958	1.435001926716681	-0.6025348445096438	0.34869940757290957	1.4697643488795589	-0.6575947507563522	0.5282125328940952	1.5265028471843871	-0.5275396022721089
94	4.083333333333333	-0.06330227642311259	0.9047157300926822	-0.69647693575543	-0.0886810818805836	0.5084642753577989	-0.6438367952020962	-0.046300995337295224	0.1438394244601813	-0.7203546366996263	-0.06588317997455806	0.046259087362319	-0.6076730384914822	-0.10066830273421148	0.04412633362671988	-0.6545645334341796	-0.025554975068478068	0.10208763895525777	-0.7908705893524176	0.12566621397700956	0.9172093690886541	-0.7410245437735984	0.09058777233286484	0.5326244889812582	-0.573353883397168	0.07702807963053143	0.19036367767936405	-0.6855141696453932	0.06750826943354661	0.11468843424613909	-0.5358223583851037	0.10543132303369922	0.1265535649470699	-0.5583918239111041	0.0787638988380011	0.15557681107888127	-0.7413972921830473	-0.08120102456127375	1.4022827513458402	-0.5440401796196217	-0.14313365718351215	1.6055501639306184	-0.3362816926148667	-0.10173271972402413	1.4496266502976238	-0.3623924364889492	-0.22085494658375054	1.3457371254802493	-0.6234062631085192	-0.38820833136351496	1.1372211067252094	-0.652640131119788	-0.5218157030738488	1.090585851324768	-0.4402018693157022	0.09619808956074526	1.4361285770692358	-0.5956224302726189	0.3520369172812176	1.4747226407202094	-0.6438968346413851	0.5165565268646349	1.5372715048008547	-0.4997208026256908
95	4.1	-0.06383275862137845	0.9038629911340802	-0.6925904840359133	-0.08634490620594187	0.5117486109800822	-0.6335216034983125	-0.04661899410138371	0.14315382422578313	-0.7226392237347534	-0.06795878433468394	0.046636514206762535	-0.6087461203993142	-0.10078297675640419	0.04452749296822998	-0.6551968411814871	-0.025111725457539143	0.10075412112635403	-0.7895108563623872	0.12437749890269002	0.9195505083866016	-0.7341124694558935	0.08795008273026098	0.5359105968426972	-0.5599420489825214	0.07928557235585118	0.1819526538720306	-0.6487326460790148	0.06456719187912932	0.11763559257604637	-0.4928521492730732	0.10460175111486265	0.12647539112748832	-0.5148369126286776	0.08130380485809348	0.1453545394860076	-0.7013380062633836	-0.08400132277870505	1.4028777604954732	-0.5368241337815006	-0.14660636268829338	1.6055493531909781	-0.3296531872239562	-0.10677508367278077	1.449807905837371	-0.3537113078110897	-0.22108157448963664	1.3464718266492677	-0.6170886599835645	-0.3857504297643184	1.1339768602167914	-0.6538826555950449	-0.5185646117145833	1.0809256189491006	-0.44117745046723933	0.09254684066908259	1.4387118384964137	-0.5846487319753437	0.35295669371971433	1.477812825662878	-0.6311805573382931	0.5045134266262884	1.5439039811035664	-0.474267556178045
